# xmcd CD database file generated by OrangeCD 5.2
#
# Track frame offsets:
#	150
#	20722
#	35257
#	55825
#	88163
#	109148
#	124177
#	142880
#	158939
#	178137
#
# Disc length: 3335 seconds
#
# Revision: 2
# Processed by: cddbd v1.5.1PL0 Copyright (c) Steve Scherf et al.
# Submitted via: OrangeCD 5.2
#
DISCID=860d050a
DTITLE=John Lee Hooker - Montreux Jazz Festival 7-15-83
DYEAR=1983
DGENRE=Blues
TTITLE0=Serves Me Right To Suffer
TTITLE1=I Didn't Know
TTITLE2=High Heel Sneakers
TTITLE3=I'll Take Care Of You
TTITLE4=Boom Boom
TTITLE5=Worried Life Blues
TTITLE6=I'm Jealous
TTITLE7=Crawlin' Kingsnake
TTITLE8=Little Girl
TTITLE9=Boogie Chillen
EXTD=
EXTT0=
EXTT1=
EXTT2=
EXTT3=
EXTT4=
EXTT5=
EXTT6=
EXTT7=
EXTT8=
EXTT9=
PLAYORDER=
